<svg xmlns="http://www.w3.org/2000/svg" viewBox="0 0 480 280" role="img" aria-label="Solarkraftwerk im Sonnenlicht">
  <defs><linearGradient id="sky" x2="0" y2="1"><stop stop-color="#28365b"/><stop offset="1" stop-color="#0a1729"/></linearGradient><linearGradient id="panel" x2="1" y2="1"><stop stop-color="#75d7ff"/><stop offset="1" stop-color="#263e93"/></linearGradient><filter id="b"><feGaussianBlur stdDeviation="12"/></filter></defs>
  <rect width="480" height="280" rx="18" fill="url(#sky)"/><circle cx="395" cy="64" r="43" fill="#ffda8a" filter="url(#b)"/><circle cx="395" cy="64" r="30" fill="#fff0c3"/><path d="M0 191 96 145l72 36 87-59 114 68 111-32v122H0Z" fill="#102139"/><g fill="url(#panel)" stroke="#b2edff" stroke-width="3"><path d="M66 210l82-40 30 52-84 37Z"/><path d="M194 195l80-38 29 48-81 35Z"/><path d="M319 211l73-34 25 42-75 34Z"/></g><path d="M93 213l63 27m-35-52 63 27m37-10 59 23m-31-50 58 23m43 12 53 21m-28-43 52 21" stroke="#5f8cd0" stroke-width="2"/><path d="M50 259h373" stroke="#ffcf78" stroke-width="5"/><text x="28" y="42" fill="#fff0ce" font-family="Arial,sans-serif" font-size="18" font-weight="700" letter-spacing="4">SOLARKRAFTWERK</text>
</svg>
